<svg width="50" height="20" viewBox="0 0 50 20" fill="none" xmlns="http://www.w3.org/2000/svg">
<path d="M0 0.830672V0H5.09479L13.0692 16.9457L12.1555 19.0501H8.55593L0 0.830672ZM15.6443 11.0479H15.5336L13.6784 15.5336L11.2971 10.4388L15.6443 0H20.9053V19.0501H15.6443V11.0479ZM0 3.57189L5.09479 14.426V19.0501H0V3.57189Z" fill="url(#paint0_linear_44_6)"/>
<path d="M27.2949 18.2471C27.1657 17.7302 26.9996 17.0103 26.7965 16.0874L26.0489 13.0416L25.2183 9.55273L22.9755 0H28.4856L32.4174 19.0501H27.4888L27.2949 18.2471ZM31.6421 9.52505L33.7188 0H39.3951L43.9361 19.0501H39.2013L38.3983 15.7274L37.5676 12.2109C37.2169 10.7895 36.8846 9.39583 36.5708 8.02983H36.4047L35.4632 12.2109L35.1586 13.623C35.0664 14.0107 34.9741 14.3799 34.8818 14.7306C34.8079 15.0813 34.7341 15.4136 34.6602 15.7274L34.1065 18.1364L33.885 19.0501H33.5804L31.6421 9.52505ZM42.8285 9.35891L44.4899 0H50L46.8988 13.0416C46.5481 14.4629 46.3081 15.4782 46.1789 16.0874L45.6528 18.2471L45.459 19.0501H45.1267L42.8285 9.35891Z" fill="url(#paint1_linear_44_6)"/>
<defs>
<linearGradient id="paint0_linear_44_6" x1="24.7356" y1="-13.2538" x2="24.7356" y2="30.5872" gradientUnits="userSpaceOnUse">
<stop stop-color="#AD14EC"/>
<stop offset="1" stop-color="#2E0583"/>
</linearGradient>
<linearGradient id="paint1_linear_44_6" x1="24.7356" y1="-13.2538" x2="24.7356" y2="30.5872" gradientUnits="userSpaceOnUse">
<stop stop-color="#AD14EC"/>
<stop offset="1" stop-color="#2E0583"/>
</linearGradient>
</defs>
</svg>
